<svg xmlns="http://www.w3.org/2000/svg" width="428.023" height="203.91" viewBox="0 0 428.023 203.91">
  <g id="Group_23" data-name="Group 23" opacity="0.1">
    <path id="Path_66" data-name="Path 66" d="M80.762,268.232h32.9V130.264L80.762,115.5Z" transform="translate(249.149 -64.322)" fill="#5c2aff"/>
    <rect id="Rectangle_19" data-name="Rectangle 19" width="32.427" height="84.593" transform="translate(304.063 119.317)" fill="#5c2aff"/>
    <rect id="Rectangle_20" data-name="Rectangle 20" width="30.547" height="126.419" transform="translate(273.516 77.491)" fill="#5c2aff"/>
    <rect id="Rectangle_21" data-name="Rectangle 21" width="12.582" height="126.419" transform="translate(282.498 43.529)" fill="#5c2aff"/>
    <rect id="Rectangle_22" data-name="Rectangle 22" width="2.42" height="126.419" transform="translate(287.579)" fill="#5c2aff"/>
    <rect id="Rectangle_23" data-name="Rectangle 23" width="15.979" height="92.112" transform="translate(260.827 111.798)" fill="#5c2aff"/>
    <rect id="Rectangle_24" data-name="Rectangle 24" width="17.859" height="106.211" transform="translate(246.728 97.699)" fill="#5c2aff"/>
    <path id="Path_67" data-name="Path 67" d="M-26.067,270.631H10.589V90.338l-36.657,19.567Z" transform="translate(238.959 -66.721)" fill="#5c2aff"/>
    <rect id="Rectangle_25" data-name="Rectangle 25" width="39.007" height="123.129" transform="translate(177.174 80.781)" fill="#5c2aff"/>
    <rect id="Rectangle_26" data-name="Rectangle 26" width="17.858" height="69.554" transform="translate(163.076 134.356)" fill="#5c2aff"/>
    <rect id="Rectangle_27" data-name="Rectangle 27" width="22.558" height="104.801" transform="translate(143.337 99.109)" fill="#5c2aff"/>
    <path id="Path_68" data-name="Path 68" d="M-132.9,266.907h47.936V144.718l-23.922-15.34-24.014,15.34Z" transform="translate(228.768 -62.997)" fill="#5c2aff"/>
    <rect id="Rectangle_28" data-name="Rectangle 28" width="49.816" height="86.002" transform="translate(50.755 117.908)" fill="#5c2aff"/>
    <rect id="Rectangle_29" data-name="Rectangle 29" width="31.957" height="142.397" transform="translate(23.498 61.513)" fill="#5c2aff"/>
    <rect id="Rectangle_30" data-name="Rectangle 30" width="26.788" height="98.691" transform="translate(0 105.219)" fill="#5c2aff"/>
    <rect id="Rectangle_31" data-name="Rectangle 31" width="42.57" height="96.943" transform="translate(357.432 106.967)" fill="#5c2aff"/>
    <rect id="Rectangle_32" data-name="Rectangle 32" width="31.254" height="83.471" transform="translate(396.769 120.439)" fill="#5c2aff"/>
  </g>
</svg>
