<svg xmlns="http://www.w3.org/2000/svg" width="1280" height="384.574" viewBox="0 0 1280 384.574">
  <g id="Group_1131" data-name="Group 1131" transform="translate(-204 -755.5)">
    <g id="Group_24" data-name="Group 24" transform="translate(625.427 755.5)">
      <path id="Path_69" data-name="Path 69" d="M-127.987,270.854h-32.9V170.377l32.9-14.769Z" transform="translate(226.099 -104.434)" fill="#5c2aff"/>
      <rect id="Rectangle_33" data-name="Rectangle 33" width="32.427" height="47.102" transform="translate(123.96 166.42) rotate(180)" fill="#5c2aff"/>
      <rect id="Rectangle_34" data-name="Rectangle 34" width="30.547" height="88.929" transform="translate(154.507 166.42) rotate(180)" fill="#5c2aff"/>
      <rect id="Rectangle_35" data-name="Rectangle 35" width="12.582" height="99.038" transform="translate(145.524 142.567) rotate(180)" fill="#5c2aff"/>
      <rect id="Rectangle_36" data-name="Rectangle 36" width="2.42" height="126.419" transform="translate(140.443 126.419) rotate(180)" fill="#5c2aff"/>
      <rect id="Rectangle_37" data-name="Rectangle 37" width="15.979" height="54.622" transform="translate(167.196 166.42) rotate(180)" fill="#5c2aff"/>
      <rect id="Rectangle_38" data-name="Rectangle 38" width="17.858" height="68.72" transform="translate(181.294 166.42) rotate(180)" fill="#5c2aff"/>
      <path id="Path_70" data-name="Path 70" d="M-20.83,273.254H-57.487v-142.8l36.657,19.567Z" transform="translate(235.962 -106.834)" fill="#5c2aff"/>
      <rect id="Rectangle_39" data-name="Rectangle 39" width="39.006" height="85.639" transform="translate(250.848 166.42) rotate(180)" fill="#5c2aff"/>
      <rect id="Rectangle_40" data-name="Rectangle 40" width="17.858" height="32.064" transform="translate(264.947 166.42) rotate(180)" fill="#5c2aff"/>
      <rect id="Rectangle_41" data-name="Rectangle 41" width="22.558" height="67.311" transform="translate(284.685 166.42) rotate(180)" fill="#5c2aff"/>
      <path id="Path_71" data-name="Path 71" d="M86.982,269.53H39.046v-84.7l23.922-15.34,24.014,15.34Z" transform="translate(245.169 -103.11)" fill="#5c2aff"/>
      <rect id="Rectangle_42" data-name="Rectangle 42" width="49.816" height="48.512" transform="translate(377.267 166.42) rotate(180)" fill="#5c2aff"/>
      <rect id="Rectangle_43" data-name="Rectangle 43" width="31.957" height="104.907" transform="translate(404.525 166.42) rotate(180)" fill="#5c2aff"/>
      <rect id="Rectangle_44" data-name="Rectangle 44" width="26.788" height="61.201" transform="translate(428.023 166.42) rotate(180)" fill="#5c2aff"/>
      <rect id="Rectangle_45" data-name="Rectangle 45" width="42.57" height="59.452" transform="translate(70.591 166.42) rotate(180)" fill="#5c2aff"/>
      <rect id="Rectangle_46" data-name="Rectangle 46" width="31.254" height="45.981" transform="translate(31.254 166.42) rotate(180)" fill="#5c2aff"/>
      <rect id="Rectangle_47" data-name="Rectangle 47" width="5.346" height="14.392" transform="translate(186.063 47.019)" fill="#5c2aff"/>
      <rect id="Rectangle_48" data-name="Rectangle 48" width="5.346" height="14.392" transform="translate(199.427 47.019)" fill="#5c2aff"/>
      <rect id="Rectangle_49" data-name="Rectangle 49" width="5.346" height="14.392" transform="translate(186.063 74.364)" fill="#5c2aff"/>
      <rect id="Rectangle_50" data-name="Rectangle 50" width="5.346" height="14.392" transform="translate(199.427 74.364)" fill="#5c2aff"/>
      <rect id="Rectangle_51" data-name="Rectangle 51" width="5.346" height="14.392" transform="translate(186.063 101.709)" fill="#5c2aff"/>
      <rect id="Rectangle_52" data-name="Rectangle 52" width="5.346" height="14.392" transform="translate(199.427 101.709)" fill="#5c2aff"/>
      <rect id="Rectangle_53" data-name="Rectangle 53" width="5.346" height="14.392" transform="translate(186.063 129.054)" fill="#5c2aff"/>
      <rect id="Rectangle_54" data-name="Rectangle 54" width="5.346" height="14.392" transform="translate(199.427 129.054)" fill="#5c2aff"/>
      <rect id="Rectangle_55" data-name="Rectangle 55" width="5.346" height="14.392" transform="translate(221.838 91.224)" fill="#5c2aff"/>
      <rect id="Rectangle_56" data-name="Rectangle 56" width="5.346" height="14.392" transform="translate(235.202 91.224)" fill="#5c2aff"/>
      <rect id="Rectangle_57" data-name="Rectangle 57" width="5.346" height="14.392" transform="translate(221.838 118.569)" fill="#5c2aff"/>
      <rect id="Rectangle_58" data-name="Rectangle 58" width="5.346" height="14.392" transform="translate(235.202 118.569)" fill="#5c2aff"/>
      <rect id="Rectangle_59" data-name="Rectangle 59" width="5.346" height="14.392" transform="translate(267.481 104.794)" fill="#5c2aff"/>
      <rect id="Rectangle_60" data-name="Rectangle 60" width="5.345" height="14.392" transform="translate(280.845 104.794)" fill="#5c2aff"/>
      <rect id="Rectangle_61" data-name="Rectangle 61" width="5.346" height="14.392" transform="translate(267.481 132.139)" fill="#5c2aff"/>
      <rect id="Rectangle_62" data-name="Rectangle 62" width="5.345" height="14.392" transform="translate(280.845 132.139)" fill="#5c2aff"/>
      <rect id="Rectangle_63" data-name="Rectangle 63" width="5.346" height="14.392" transform="translate(300.789 89.168)" fill="#5c2aff"/>
      <rect id="Rectangle_64" data-name="Rectangle 64" width="5.345" height="14.392" transform="translate(314.153 89.168)" fill="#5c2aff"/>
      <rect id="Rectangle_65" data-name="Rectangle 65" width="5.346" height="14.392" transform="translate(300.789 116.513)" fill="#5c2aff"/>
      <rect id="Rectangle_66" data-name="Rectangle 66" width="5.345" height="14.392" transform="translate(314.153 116.513)" fill="#5c2aff"/>
      <rect id="Rectangle_67" data-name="Rectangle 67" width="5.346" height="14.392" transform="translate(380.562 71.897)" fill="#5c2aff"/>
      <rect id="Rectangle_68" data-name="Rectangle 68" width="5.346" height="14.392" transform="translate(393.926 71.897)" fill="#5c2aff"/>
      <rect id="Rectangle_69" data-name="Rectangle 69" width="5.346" height="14.392" transform="translate(380.562 99.242)" fill="#5c2aff"/>
      <rect id="Rectangle_70" data-name="Rectangle 70" width="5.346" height="14.392" transform="translate(393.926 99.242)" fill="#5c2aff"/>
      <rect id="Rectangle_71" data-name="Rectangle 71" width="5.346" height="14.392" transform="translate(130.962 83.822)" fill="#5c2aff"/>
      <rect id="Rectangle_72" data-name="Rectangle 72" width="5.346" height="14.392" transform="translate(144.326 83.822)" fill="#5c2aff"/>
      <rect id="Rectangle_73" data-name="Rectangle 73" width="5.346" height="14.392" transform="translate(130.962 111.167)" fill="#5c2aff"/>
      <rect id="Rectangle_74" data-name="Rectangle 74" width="5.346" height="14.392" transform="translate(144.326 111.167)" fill="#5c2aff"/>
      <rect id="Rectangle_75" data-name="Rectangle 75" width="5.345" height="14.392" transform="translate(72.982 71.486)" fill="#5c2aff"/>
      <rect id="Rectangle_76" data-name="Rectangle 76" width="5.346" height="14.392" transform="translate(86.346 71.486)" fill="#5c2aff"/>
      <rect id="Rectangle_77" data-name="Rectangle 77" width="5.345" height="14.392" transform="translate(72.982 98.831)" fill="#5c2aff"/>
      <rect id="Rectangle_78" data-name="Rectangle 78" width="5.346" height="14.392" transform="translate(86.346 98.831)" fill="#5c2aff"/>
    </g>
    <g id="Group_29" data-name="Group 29" transform="translate(423.785 755.5)">
      <path id="Path_69-2" data-name="Path 69" d="M-127.987,270.854h-32.9V170.377l32.9-14.769Z" transform="translate(198.807 -104.434)" fill="#5c2aff"/>
      <rect id="Rectangle_33-2" data-name="Rectangle 33" width="32.427" height="47.102" transform="translate(85.699 166.42) rotate(180)" fill="#5c2aff"/>
      <rect id="Rectangle_34-2" data-name="Rectangle 34" width="30.547" height="88.929" transform="translate(102.937 166.42) rotate(180)" fill="#5c2aff"/>
      <rect id="Rectangle_35-2" data-name="Rectangle 35" width="12.582" height="99.038" transform="translate(92.609 142.567) rotate(180)" fill="#5c2aff"/>
      <rect id="Rectangle_36-2" data-name="Rectangle 36" width="2.42" height="126.419" transform="translate(86.818 126.419) rotate(180)" fill="#5c2aff"/>
      <rect id="Rectangle_37-2" data-name="Rectangle 37" width="15.979" height="54.622" transform="translate(106.511 166.42) rotate(180)" fill="#5c2aff"/>
      <rect id="Rectangle_38-2" data-name="Rectangle 38" width="17.858" height="68.72" transform="translate(115.405 166.42) rotate(180)" fill="#5c2aff"/>
      <path id="Path_70-2" data-name="Path 70" d="M-20.83,273.254H-57.487v-142.8l36.657,19.567Z" transform="translate(160.553 -106.834)" fill="#5c2aff"/>
      <rect id="Rectangle_39-2" data-name="Rectangle 39" width="39.006" height="85.639" transform="translate(160.801 166.42) rotate(180)" fill="#5c2aff"/>
      <rect id="Rectangle_40-2" data-name="Rectangle 40" width="17.858" height="32.064" transform="translate(165.333 166.42) rotate(180)" fill="#5c2aff"/>
      <rect id="Rectangle_41-2" data-name="Rectangle 41" width="22.558" height="67.311" transform="translate(177.784 166.42) rotate(180)" fill="#5c2aff"/>
      <path id="Path_71-2" data-name="Path 71" d="M86.982,269.53H39.046v-84.7l23.922-15.34,24.014,15.34Z" transform="translate(121.52 -103.11)" fill="#5c2aff"/>
      <rect id="Rectangle_42-2" data-name="Rectangle 42" width="49.816" height="48.512" transform="translate(211.909 166.42) rotate(180)" fill="#5c2aff"/>
      <rect id="Rectangle_43-2" data-name="Rectangle 43" width="31.957" height="104.907" transform="translate(239.167 166.42) rotate(180)" fill="#5c2aff"/>
      <rect id="Rectangle_44-2" data-name="Rectangle 44" width="26.788" height="61.201" transform="translate(262.665 166.42) rotate(180)" fill="#5c2aff"/>
      <rect id="Rectangle_45-2" data-name="Rectangle 45" width="42.57" height="59.452" transform="translate(70.591 166.42) rotate(180)" fill="#5c2aff"/>
      <rect id="Rectangle_46-2" data-name="Rectangle 46" width="31.254" height="45.981" transform="translate(31.254 166.42) rotate(180)" fill="#5c2aff"/>
      <rect id="Rectangle_47-2" data-name="Rectangle 47" width="5.346" height="14.392" transform="translate(113.272 47.019)" fill="#5c2aff"/>
      <rect id="Rectangle_48-2" data-name="Rectangle 48" width="5.346" height="14.392" transform="translate(121.408 47.019)" fill="#5c2aff"/>
      <rect id="Rectangle_49-2" data-name="Rectangle 49" width="5.346" height="14.392" transform="translate(113.272 74.364)" fill="#5c2aff"/>
      <rect id="Rectangle_50-2" data-name="Rectangle 50" width="5.346" height="14.392" transform="translate(121.408 74.364)" fill="#5c2aff"/>
      <rect id="Rectangle_51-2" data-name="Rectangle 51" width="5.346" height="14.392" transform="translate(113.272 101.709)" fill="#5c2aff"/>
      <rect id="Rectangle_52-2" data-name="Rectangle 52" width="5.346" height="14.392" transform="translate(121.408 101.709)" fill="#5c2aff"/>
      <rect id="Rectangle_53-2" data-name="Rectangle 53" width="5.346" height="14.392" transform="translate(113.272 129.054)" fill="#5c2aff"/>
      <rect id="Rectangle_54-2" data-name="Rectangle 54" width="5.346" height="14.392" transform="translate(121.408 129.054)" fill="#5c2aff"/>
      <rect id="Rectangle_55-2" data-name="Rectangle 55" width="5.346" height="14.392" transform="translate(135.051 91.224)" fill="#5c2aff"/>
      <rect id="Rectangle_56-2" data-name="Rectangle 56" width="5.346" height="14.392" transform="translate(143.187 91.224)" fill="#5c2aff"/>
      <rect id="Rectangle_57-2" data-name="Rectangle 57" width="5.346" height="14.392" transform="translate(135.051 118.569)" fill="#5c2aff"/>
      <rect id="Rectangle_58-2" data-name="Rectangle 58" width="5.346" height="14.392" transform="translate(143.187 118.569)" fill="#5c2aff"/>
      <rect id="Rectangle_59-2" data-name="Rectangle 59" width="5.346" height="14.392" transform="translate(162.838 104.794)" fill="#5c2aff"/>
      <rect id="Rectangle_60-2" data-name="Rectangle 60" width="5.345" height="14.392" transform="translate(170.974 104.794)" fill="#5c2aff"/>
      <rect id="Rectangle_61-2" data-name="Rectangle 61" width="5.346" height="14.392" transform="translate(162.838 132.139)" fill="#5c2aff"/>
      <rect id="Rectangle_62-2" data-name="Rectangle 62" width="5.345" height="14.392" transform="translate(170.974 132.139)" fill="#5c2aff"/>
      <rect id="Rectangle_63-2" data-name="Rectangle 63" width="5.346" height="14.392" transform="translate(183.115 89.168)" fill="#5c2aff"/>
      <rect id="Rectangle_64-2" data-name="Rectangle 64" width="5.345" height="14.392" transform="translate(191.251 89.168)" fill="#5c2aff"/>
      <rect id="Rectangle_65-2" data-name="Rectangle 65" width="5.346" height="14.392" transform="translate(183.115 116.513)" fill="#5c2aff"/>
      <rect id="Rectangle_66-2" data-name="Rectangle 66" width="5.345" height="14.392" transform="translate(191.251 116.513)" fill="#5c2aff"/>
      <rect id="Rectangle_67-2" data-name="Rectangle 67" width="5.346" height="14.392" transform="translate(215.204 71.897)" fill="#5c2aff"/>
      <rect id="Rectangle_68-2" data-name="Rectangle 68" width="5.346" height="14.392" transform="translate(228.568 71.897)" fill="#5c2aff"/>
      <rect id="Rectangle_69-2" data-name="Rectangle 69" width="5.346" height="14.392" transform="translate(215.204 99.242)" fill="#5c2aff"/>
      <rect id="Rectangle_70-2" data-name="Rectangle 70" width="5.346" height="14.392" transform="translate(228.568 99.242)" fill="#5c2aff"/>
      <rect id="Rectangle_71-2" data-name="Rectangle 71" width="5.346" height="14.392" transform="translate(79.727 83.822)" fill="#5c2aff"/>
      <rect id="Rectangle_72-2" data-name="Rectangle 72" width="5.346" height="14.392" transform="translate(87.863 83.822)" fill="#5c2aff"/>
      <rect id="Rectangle_73-2" data-name="Rectangle 73" width="5.346" height="14.392" transform="translate(79.727 111.167)" fill="#5c2aff"/>
      <rect id="Rectangle_74-2" data-name="Rectangle 74" width="5.346" height="14.392" transform="translate(87.863 111.167)" fill="#5c2aff"/>
      <rect id="Rectangle_75-2" data-name="Rectangle 75" width="5.345" height="14.392" transform="translate(72.982 71.486)" fill="#5c2aff"/>
      <rect id="Rectangle_76-2" data-name="Rectangle 76" width="5.346" height="14.392" transform="translate(52.566 71.486)" fill="#5c2aff"/>
      <rect id="Rectangle_77-2" data-name="Rectangle 77" width="5.345" height="14.392" transform="translate(72.982 98.831)" fill="#5c2aff"/>
      <rect id="Rectangle_78-2" data-name="Rectangle 78" width="5.346" height="14.392" transform="translate(52.566 98.831)" fill="#5c2aff"/>
    </g>
    <g id="Group_30" data-name="Group 30" transform="translate(1053.45 755.5)">
      <path id="Path_69-3" data-name="Path 69" d="M-160.884,270.854h32.9V170.377l-32.9-14.769Z" transform="translate(307.4 -104.434)" fill="#5c2aff"/>
      <rect id="Rectangle_33-3" data-name="Rectangle 33" width="32.427" height="47.102" transform="translate(115.293 119.317)" fill="#5c2aff"/>
      <rect id="Rectangle_34-3" data-name="Rectangle 34" width="30.547" height="88.929" transform="translate(103.26 77.491)" fill="#5c2aff"/>
      <rect id="Rectangle_35-3" data-name="Rectangle 35" width="12.582" height="99.038" transform="translate(128.821 43.529)" fill="#5c2aff"/>
      <rect id="Rectangle_36-3" data-name="Rectangle 36" width="2.42" height="126.419" transform="translate(143.215)" fill="#5c2aff"/>
      <rect id="Rectangle_37-3" data-name="Rectangle 37" width="15.979" height="54.622" transform="translate(114.239 111.798)" fill="#5c2aff"/>
      <rect id="Rectangle_38-3" data-name="Rectangle 38" width="17.858" height="68.72" transform="translate(105.216 97.699)" fill="#5c2aff"/>
      <path id="Path_70-3" data-name="Path 70" d="M-57.487,273.254H-20.83v-142.8l-36.657,19.567Z" transform="translate(155.771 -106.834)" fill="#5c2aff"/>
      <rect id="Rectangle_39-3" data-name="Rectangle 39" width="39.006" height="85.639" transform="translate(48.944 80.781)" fill="#5c2aff"/>
      <rect id="Rectangle_40-3" data-name="Rectangle 40" width="17.858" height="32.064" transform="translate(64.533 134.356)" fill="#5c2aff"/>
      <rect id="Rectangle_41-3" data-name="Rectangle 41" width="22.558" height="67.311" transform="translate(50.191 99.109)" fill="#5c2aff"/>
      <path id="Path_71-3" data-name="Path 71" d="M39.046,269.53H86.982v-84.7L63.06,169.491l-24.014,15.34Z" transform="translate(3.683 -103.11)" fill="#5c2aff"/>
      <rect id="Rectangle_42-3" data-name="Rectangle 42" width="49.816" height="48.512" transform="translate(0 117.908)" fill="#5c2aff"/>
      <rect id="Rectangle_43-3" data-name="Rectangle 43" width="31.957" height="104.907" transform="translate(23.498 61.513)" fill="#5c2aff"/>
      <rect id="Rectangle_44-3" data-name="Rectangle 44" width="26.788" height="61.201" transform="translate(0 105.219)" fill="#5c2aff"/>
      <rect id="Rectangle_45-3" data-name="Rectangle 45" width="42.57" height="59.452" transform="translate(146.745 106.967)" fill="#5c2aff"/>
      <rect id="Rectangle_46-3" data-name="Rectangle 46" width="31.254" height="45.981" transform="translate(186.082 120.439)" fill="#5c2aff"/>
      <rect id="Rectangle_47-3" data-name="Rectangle 47" width="5.346" height="14.392" transform="translate(118.672 47.019)" fill="#5c2aff"/>
      <rect id="Rectangle_48-3" data-name="Rectangle 48" width="5.346" height="14.392" transform="translate(111.969 47.019)" fill="#5c2aff"/>
      <rect id="Rectangle_49-3" data-name="Rectangle 49" width="5.346" height="14.392" transform="translate(118.672 74.364)" fill="#5c2aff"/>
      <rect id="Rectangle_50-3" data-name="Rectangle 50" width="5.346" height="14.392" transform="translate(111.969 74.364)" fill="#5c2aff"/>
      <rect id="Rectangle_51-3" data-name="Rectangle 51" width="5.346" height="14.392" transform="translate(118.672 101.709)" fill="#5c2aff"/>
      <rect id="Rectangle_52-3" data-name="Rectangle 52" width="5.346" height="14.392" transform="translate(111.969 101.709)" fill="#5c2aff"/>
      <rect id="Rectangle_53-3" data-name="Rectangle 53" width="5.346" height="14.392" transform="translate(118.672 129.054)" fill="#5c2aff"/>
      <rect id="Rectangle_54-3" data-name="Rectangle 54" width="5.346" height="14.392" transform="translate(111.969 129.054)" fill="#5c2aff"/>
      <rect id="Rectangle_55-3" data-name="Rectangle 55" width="5.346" height="14.392" transform="translate(100.729 91.224)" fill="#5c2aff"/>
      <rect id="Rectangle_56-3" data-name="Rectangle 56" width="5.346" height="14.392" transform="translate(94.027 91.224)" fill="#5c2aff"/>
      <rect id="Rectangle_57-3" data-name="Rectangle 57" width="5.346" height="14.392" transform="translate(100.729 118.569)" fill="#5c2aff"/>
      <rect id="Rectangle_58-3" data-name="Rectangle 58" width="5.346" height="14.392" transform="translate(94.027 118.569)" fill="#5c2aff"/>
      <rect id="Rectangle_59-3" data-name="Rectangle 59" width="5.346" height="14.392" transform="translate(77.837 104.794)" fill="#5c2aff"/>
      <rect id="Rectangle_60-3" data-name="Rectangle 60" width="5.345" height="14.392" transform="translate(71.135 104.794)" fill="#5c2aff"/>
      <rect id="Rectangle_61-3" data-name="Rectangle 61" width="5.346" height="14.392" transform="translate(77.837 132.139)" fill="#5c2aff"/>
      <rect id="Rectangle_62-3" data-name="Rectangle 62" width="5.345" height="14.392" transform="translate(71.135 132.139)" fill="#5c2aff"/>
      <rect id="Rectangle_63-3" data-name="Rectangle 63" width="5.346" height="14.392" transform="translate(61.132 89.168)" fill="#5c2aff"/>
      <rect id="Rectangle_64-3" data-name="Rectangle 64" width="5.345" height="14.392" transform="translate(54.429 89.168)" fill="#5c2aff"/>
      <rect id="Rectangle_65-3" data-name="Rectangle 65" width="5.346" height="14.392" transform="translate(61.132 116.513)" fill="#5c2aff"/>
      <rect id="Rectangle_66-3" data-name="Rectangle 66" width="5.345" height="14.392" transform="translate(54.429 116.513)" fill="#5c2aff"/>
      <rect id="Rectangle_67-3" data-name="Rectangle 67" width="5.346" height="14.392" transform="translate(42.115 71.897)" fill="#5c2aff"/>
      <rect id="Rectangle_68-3" data-name="Rectangle 68" width="5.346" height="14.392" transform="translate(28.751 71.897)" fill="#5c2aff"/>
      <rect id="Rectangle_69-3" data-name="Rectangle 69" width="5.346" height="14.392" transform="translate(42.115 99.242)" fill="#5c2aff"/>
      <rect id="Rectangle_70-3" data-name="Rectangle 70" width="5.346" height="14.392" transform="translate(28.751 99.242)" fill="#5c2aff"/>
      <rect id="Rectangle_71-3" data-name="Rectangle 71" width="5.346" height="14.392" transform="translate(146.307 83.822)" fill="#5c2aff"/>
      <rect id="Rectangle_72-3" data-name="Rectangle 72" width="5.346" height="14.392" transform="translate(139.605 83.822)" fill="#5c2aff"/>
      <rect id="Rectangle_73-3" data-name="Rectangle 73" width="5.346" height="14.392" transform="translate(146.307 111.167)" fill="#5c2aff"/>
      <rect id="Rectangle_74-3" data-name="Rectangle 74" width="5.346" height="14.392" transform="translate(139.605 111.167)" fill="#5c2aff"/>
      <rect id="Rectangle_75-3" data-name="Rectangle 75" width="5.345" height="14.392" transform="translate(151.865 71.486)" fill="#5c2aff"/>
      <rect id="Rectangle_76-3" data-name="Rectangle 76" width="5.346" height="14.392" transform="translate(168.684 71.486)" fill="#5c2aff"/>
      <rect id="Rectangle_77-3" data-name="Rectangle 77" width="5.345" height="14.392" transform="translate(151.865 98.831)" fill="#5c2aff"/>
      <rect id="Rectangle_78-3" data-name="Rectangle 78" width="5.346" height="14.392" transform="translate(168.684 98.831)" fill="#5c2aff"/>
    </g>
    <rect id="Rectangle_79" data-name="Rectangle 79" width="1280" height="240" transform="translate(204 900.074)" fill="#5c2aff"/>
    <path id="Path_74" data-name="Path 74" d="M-433,656s54.166-25.221,86.276-20.151,44.323,13.38,68.832,5.678,29.061-11.2,52.169-14.005,18.207,1.4,38.864,5.6,18.907,12.955,27.66,16.456A71.046,71.046,0,0,1-146.245,656l-16.806,33.494s-95.935,30.811-114.842,31.511" transform="translate(637 244.074)" fill="#5c2aff"/>
    <path id="Path_75" data-name="Path 75" d="M-60.3,656s-70.4-25.221-112.133-20.151-57.607,13.38-89.462,5.678-37.77-11.2-67.8-14.005-23.663,1.4-50.512,5.6-24.574,12.955-35.95,16.456S-433,656-433,656l21.843,33.494S-286.469,720.3-261.9,721.005" transform="translate(1542.796 244.074)" fill="#5c2aff"/>
  </g>
</svg>
